<svg xmlns="http://www.w3.org/2000/svg" width="1200" height="860" viewBox="0 0 1200 860" role="img" aria-labelledby="title desc">
  <title id="title">Agent runtime separate from sandbox compute</title>
  <desc id="desc">A compact high-level architecture diagram showing a trusted runtime control plane separate from sandbox compute where a coding agent executes.</desc>

  <defs>
    <pattern id="trustedHatch" width="18" height="18" patternUnits="userSpaceOnUse" patternTransform="rotate(45)">
      <rect width="18" height="18" fill="#f8fafc"/>
      <line x1="0" y1="0" x2="0" y2="18" stroke="#dbe3ee" stroke-width="3.6"/>
    </pattern>

    <pattern id="evidenceDots" width="15" height="15" patternUnits="userSpaceOnUse">
      <rect width="15" height="15" fill="#f8fafc"/>
      <circle cx="4" cy="4" r="1.4" fill="#cbd5e1"/>
      <circle cx="11" cy="11" r="1.4" fill="#cbd5e1"/>
    </pattern>

    <marker id="arrowBlack" markerWidth="10" markerHeight="10" refX="9" refY="5" orient="auto" markerUnits="strokeWidth">
      <path d="M1,1 L9,5 L1,9 Z" fill="#111827"/>
    </marker>

    <symbol id="icon-issue" viewBox="0 0 24 24">
      <path d="M7 3h7l4 4v14H7z"/>
      <path d="M14 3v5h5"/>
      <path d="M10 12h6M10 16h6"/>
    </symbol>

    <symbol id="icon-clock" viewBox="0 0 24 24">
      <circle cx="12" cy="12" r="8"/>
      <path d="M12 7v5l3 2"/>
    </symbol>

    <symbol id="icon-shield" viewBox="0 0 24 24">
      <path d="M12 3l7 3v5c0 5-3 8-7 10-4-2-7-5-7-10V6z"/>
      <path d="M9 12l2 2 4-5"/>
    </symbol>

    <symbol id="icon-state" viewBox="0 0 24 24">
      <ellipse cx="12" cy="6" rx="7" ry="3"/>
      <path d="M5 6v6c0 1.7 3.1 3 7 3s7-1.3 7-3V6"/>
      <path d="M5 12v6c0 1.7 3.1 3 7 3s7-1.3 7-3v-6"/>
    </symbol>

    <symbol id="icon-plug" viewBox="0 0 24 24">
      <path d="M9 7V3M15 7V3"/>
      <path d="M7 7h10v5a5 5 0 0 1-10 0z"/>
      <path d="M12 17v4"/>
    </symbol>

    <symbol id="icon-chip" viewBox="0 0 24 24">
      <rect x="7" y="7" width="10" height="10" rx="2"/>
      <path d="M4 9h3M4 15h3M17 9h3M17 15h3M9 4v3M15 4v3M9 17v3M15 17v3"/>
    </symbol>

    <symbol id="icon-loop" viewBox="0 0 24 24">
      <path d="M18 7a7 7 0 0 0-12-1l-2 2"/>
      <path d="M4 4v4h4"/>
      <path d="M6 17a7 7 0 0 0 12 1l2-2"/>
      <path d="M20 20v-4h-4"/>
    </symbol>

    <symbol id="icon-tool" viewBox="0 0 24 24">
      <path d="M14 6l4 4"/>
      <path d="M17 3l4 4-4 4-2-2-8 8-3 1 1-3 8-8z"/>
    </symbol>

    <symbol id="icon-terminal" viewBox="0 0 24 24">
      <rect x="3" y="5" width="18" height="14" rx="2"/>
      <path d="M7 10l3 2-3 2M12 15h5"/>
    </symbol>

    <symbol id="icon-globe" viewBox="0 0 24 24">
      <circle cx="12" cy="12" r="9"/>
      <path d="M3 12h18M12 3c3 3 3 15 0 18M12 3c-3 3-3 15 0 18"/>
    </symbol>

    <symbol id="icon-pr" viewBox="0 0 24 24">
      <circle cx="6" cy="6" r="2"/>
      <circle cx="18" cy="18" r="2"/>
      <circle cx="6" cy="18" r="2"/>
      <path d="M6 8v8M8 6h5a5 5 0 0 1 5 5v5"/>
    </symbol>

    <!-- Inline logo marks keep browser preview and PNG export deterministic. -->
    <symbol id="logo-opencode" viewBox="0 0 234 42">
      <path d="M18 30H6V18H18V30Z" fill="#ffffff"/>
      <path d="M18 12H6V30H18V12ZM24 36H0V6H24V36Z" fill="currentColor"/>
      <path d="M48 30H36V18H48V30Z" fill="#ffffff"/>
      <path d="M36 30H48V12H36V30ZM54 36H36V42H30V6H54V36Z" fill="currentColor"/>
      <path d="M84 24V30H66V24H84Z" fill="#ffffff"/>
      <path d="M84 24H66V30H84V36H60V6H84V24ZM66 18H78V12H66V18Z" fill="currentColor"/>
      <path d="M108 36H96V18H108V36Z" fill="#ffffff"/>
      <path d="M108 12H96V36H90V6H108V12ZM114 36H108V12H114V36Z" fill="currentColor"/>
      <path d="M144 30H126V18H144V30Z" fill="#ffffff"/>
      <path d="M144 12H126V30H144V36H120V6H144V12Z" fill="currentColor"/>
      <path d="M168 30H156V18H168V30Z" fill="#ffffff"/>
      <path d="M168 12H156V30H168V12ZM174 36H150V6H174V36Z" fill="currentColor"/>
      <path d="M198 30H186V18H198V30Z" fill="#ffffff"/>
      <path d="M198 12H186V30H198V12ZM204 36H180V6H198V0H204V36Z" fill="currentColor"/>
      <path d="M234 24V30H216V24H234Z" fill="#ffffff"/>
      <path d="M216 12V18H228V12H216ZM234 24H216V30H234V36H210V6H234V24Z" fill="currentColor"/>
    </symbol>

    <symbol id="logo-openhands" viewBox="0 0 148 100">
      <path d="M71.754 16.863V2.97414C71.754 1.82355 72.6871 0.890503 73.8377 0.890503C74.9883 0.890503 75.9213 1.82355 75.9213 2.97414V16.863C75.9213 18.0136 74.9883 18.9466 73.8377 18.9466C72.6871 18.9466 71.754 18.0136 71.754 16.863Z" fill="currentColor"/>
      <path d="M82.5273 18.9329L89.4717 6.90477C90.047 5.90832 91.3215 5.5668 92.318 6.1421C93.3144 6.7174 93.6559 7.99197 93.0806 8.98841L86.1362 21.0165C85.5609 22.0129 84.2864 22.3545 83.2899 21.7792C82.2935 21.2039 81.952 19.9293 82.5273 18.9329Z" fill="currentColor"/>
      <path d="M65.1481 18.9329L58.2037 6.90477C57.6284 5.90832 56.3538 5.5668 55.3574 6.1421C54.3609 6.7174 54.0194 7.99197 54.5947 8.98841L61.5391 21.0165C62.1144 22.0129 63.389 22.3545 64.3854 21.7792C65.3819 21.2039 65.7234 19.9293 65.1481 18.9329Z" fill="currentColor"/>
      <path d="M98.5045 92.4969C95.1427 89.7602 90.8793 83.6628 89.0929 77.664C86.8598 70.1655 82.0309 62.777 80.9578 60.9138C80.0056 59.2602 83.0313 53.2605 89.0929 58.0459C93.9421 61.8742 97.3878 68.466 98.5045 71.2833C98.9566 72.4239 103.006 79.2475 101.827 56.6051C101.455 49.445 100.49 44.3126 100.036 33.9388C99.6807 25.7997 101.824 23.057 105.11 23.057C108.396 23.057 111.106 24.1244 111.106 32.4283C111.106 22.8682 113.154 20.7141 117.646 20.7147C121.39 20.7153 123.069 23.9077 123.069 27.0952V32.5084C123.069 27.0952 126.669 26.5896 128.519 26.5896C130.37 26.5896 134.076 28.1957 134.076 32.5084V43.317C134.076 38.116 137.324 36.601 139.773 36.765C142.963 36.9786 144.405 39.2382 143.965 44.3126C143.651 47.9349 142.689 58.5273 142.689 62.0291C142.689 65.1712 143.965 71.6801 142.689 77.664C141.953 81.1168 140.137 90.2628 130.885 94.4102C121.634 98.5575 105.364 98.0807 98.5045 92.4969Z" fill="#ffffff"/>
      <path d="M140.606 62.0292C140.606 58.409 141.583 47.6748 141.89 44.1323C142.097 41.7374 141.809 40.4247 141.424 39.7542C141.141 39.2626 140.699 38.915 139.634 38.8436C138.865 38.7921 138.027 39.0114 137.401 39.5761C136.814 40.1052 136.159 41.1682 136.159 43.3176L136.155 43.4388L135.198 59.758C135.164 60.3451 134.883 60.8911 134.424 61.2599C133.966 61.6284 133.374 61.7859 132.793 61.6941L122.764 60.1068L111.948 58.6703C110.949 58.5376 110.188 57.7084 110.142 56.7016L109.545 43.8055L109.54 43.6959C109.274 38.5609 109.022 33.8767 109.022 32.4282C109.022 28.3859 108.338 26.6806 107.74 25.9634C107.263 25.3915 106.577 25.1402 105.11 25.1402C104.583 25.1402 104.212 25.2481 103.933 25.4111C103.659 25.5714 103.346 25.8587 103.049 26.4208C102.41 27.6257 101.945 29.891 102.118 33.8479C102.342 38.9804 102.692 42.8146 103.035 46.2718C103.377 49.7231 103.718 52.8561 103.908 56.4971C104.204 62.1966 104.178 66.1256 103.945 68.7924C103.828 70.124 103.656 71.1996 103.423 72.0501C103.202 72.8558 102.871 73.6757 102.296 74.2887C101.6 75.0303 100.608 75.3844 99.577 75.136C98.7592 74.9389 98.1847 74.4215 97.8706 74.0916C97.2141 73.4017 96.7501 72.5106 96.568 72.0512C95.5097 69.3812 92.2352 63.1808 87.8023 59.6811C86.5089 58.6599 85.5666 58.3652 84.9736 58.3204C84.4148 58.2783 84.0094 58.4436 83.6909 58.6967C83.34 58.9756 83.0781 59.3811 82.9479 59.7643C82.9019 59.8999 82.8823 59.9968 82.8741 60.0584C84.0759 62.0865 88.8421 69.5222 91.0896 77.069C92.7648 82.6941 96.8038 88.4259 99.8194 90.8809C102.74 93.258 107.988 94.7313 113.9 95.0218C119.756 95.3095 125.788 94.4121 130.033 92.5092C138.233 88.8334 139.903 80.7382 140.651 77.2292C141.232 74.5057 141.243 71.5987 141.087 68.9009C141.01 67.5551 140.894 66.2969 140.793 65.1373C140.695 64.0105 140.606 62.9215 140.606 62.0292ZM120.986 27.0953C120.986 25.8314 120.648 24.7049 120.089 23.9514C119.583 23.27 118.84 22.7987 117.646 22.7984C116.668 22.7982 116.011 22.9187 115.546 23.1167C115.13 23.2943 114.781 23.5699 114.463 24.0831C113.73 25.2671 113.192 27.6455 113.189 32.384L113.707 43.6021C113.901 47.3443 114.103 51.3994 114.236 54.7707L120.986 55.6666V27.0953ZM125.153 56.2652L131.172 57.218L131.992 43.267V32.5083C131.992 31.031 131.39 30.1275 130.678 29.5489C129.884 28.9039 128.957 28.6731 128.519 28.6731C127.722 28.6731 126.899 28.797 126.306 29.2179C125.849 29.5421 125.153 30.3087 125.153 32.5083V56.2652ZM136.159 35.4278C137.406 34.8069 138.74 34.6083 139.912 34.6868C142.037 34.8292 143.91 35.718 145.037 37.6779C146.06 39.4592 146.273 41.8136 146.041 44.4927C145.72 48.1949 144.772 58.6457 144.772 62.0292C144.772 62.708 144.843 63.6116 144.944 64.7758C145.042 65.907 145.165 67.2389 145.247 68.6606C145.411 71.4987 145.422 74.8383 144.727 78.0987C144.002 81.4953 142.041 91.6918 131.738 96.3108C126.731 98.5551 120.002 99.4936 113.696 99.1838C107.445 98.8767 101.128 97.3189 97.1887 94.1122C93.4809 91.0936 88.9938 84.6307 87.0962 78.2589C84.9529 71.0619 80.3109 63.9646 79.1527 61.9533C78.4706 60.7689 78.684 59.3628 79.0019 58.4258C79.3607 57.3688 80.0554 56.2631 81.0993 55.4337C82.1758 54.5784 83.6043 54.0377 85.2876 54.1647C86.9369 54.2893 88.6462 55.0393 90.3834 56.4107C94.8541 59.9401 98.1342 65.5082 99.7424 68.9231C99.759 68.7664 99.779 68.6024 99.7941 68.4298C100.003 66.0435 100.039 62.3344 99.7467 56.7132C99.5635 53.1942 99.2356 50.1809 98.8888 46.6828C98.5425 43.1904 98.184 39.2713 97.955 34.0302C97.7722 29.8481 98.2012 26.6722 99.3672 24.471C99.9716 23.3302 100.79 22.4223 101.83 21.814C102.866 21.2087 103.995 20.974 105.11 20.974C106.759 20.974 108.813 21.2062 110.448 22.7678C110.593 22.4576 110.75 22.1652 110.921 21.8899C111.676 20.6698 112.681 19.8084 113.912 19.2835C115.095 18.7791 116.378 18.6309 117.646 18.6311C120.195 18.6315 122.165 19.7565 123.435 21.4683C124.257 22.576 124.75 23.8776 124.985 25.1982C126.338 24.5876 127.691 24.5068 128.519 24.5068C129.933 24.5068 131.784 25.0791 133.305 26.3154C134.908 27.6179 136.159 29.6733 136.159 32.5083V35.4278Z" fill="currentColor"/>
      <path d="M49.258 92.4969C52.6198 89.7602 56.8832 83.6628 58.6696 77.664C60.9027 70.1655 65.7316 62.777 66.8047 60.9138C67.757 59.2602 64.7312 53.2605 58.6696 58.0459C53.8204 61.8742 50.3747 68.466 49.258 71.2833C48.8059 72.4239 44.7566 79.2475 45.935 56.6051C46.3077 49.445 47.2728 44.3126 47.7261 33.9388C48.0818 25.7997 45.9381 23.057 42.6523 23.057C39.3666 23.057 36.6568 24.1244 36.6568 32.4283C36.6568 22.8682 34.6087 20.7141 30.1168 20.7147C26.3728 20.7153 24.6934 23.9077 24.6934 27.0952V32.5084C24.6934 27.0952 21.0938 26.5896 19.243 26.5896C17.3923 26.5896 13.687 28.1957 13.687 32.5084V43.317C13.687 38.116 10.4388 36.601 7.98968 36.765C4.79943 36.9786 3.3574 39.2382 3.79721 44.3126C4.11115 47.9349 5.07331 58.5273 5.07331 62.0291C5.07331 65.1712 3.79721 71.6801 5.07331 77.664C5.80964 81.1168 7.62551 90.2628 16.8772 94.4102C26.129 98.5575 42.3987 98.0807 49.258 92.4969Z" fill="#ffffff"/>
      <path d="M7.15667 62.0292C7.15667 58.409 6.18001 47.6748 5.87297 44.1323C5.66546 41.7374 5.95363 40.4247 6.33881 39.7542C6.62122 39.2626 7.06342 38.915 8.1284 38.8436C8.89765 38.7921 9.7355 39.0114 10.3617 39.5761C10.9484 40.1052 11.6032 41.1682 11.6032 43.3176L11.6075 43.4388L12.5644 59.758C12.5989 60.3451 12.8798 60.8911 13.338 61.2599C13.7961 61.6284 14.3888 61.7859 14.9695 61.6941L24.9988 60.1068L35.8144 58.6703C36.8136 58.5376 37.5741 57.7084 37.6208 56.7016L38.2174 43.8055L38.2226 43.6959C38.4887 38.5609 38.7401 33.8767 38.7401 32.4282C38.7401 28.3859 39.4246 26.6806 40.0228 25.9634C40.4997 25.3915 41.1851 25.1402 42.6523 25.1402C43.1795 25.1402 43.5506 25.2481 43.8296 25.4111C44.1038 25.5714 44.416 25.8587 44.7139 26.4208C45.3521 27.6257 45.8174 29.891 45.6445 33.8479C45.4202 38.9804 45.0703 42.8146 44.7276 46.2718C44.3854 49.7231 44.0444 52.8561 43.8549 56.4971C43.5583 62.1966 43.5848 66.1256 43.818 68.7924C43.9345 70.124 44.107 71.1996 44.3397 72.0501C44.5602 72.8558 44.891 73.6757 45.4664 74.2887C46.1626 75.0303 47.1547 75.3844 48.1855 75.136C49.0033 74.9389 49.5779 74.4215 49.8919 74.0916C50.5484 73.4017 51.0124 72.5106 51.1945 72.0512C52.2528 69.3812 55.5273 63.1808 59.9602 59.6811C61.2536 58.6599 62.1959 58.3652 62.7889 58.3204C63.3477 58.2783 63.7531 58.4436 64.0716 58.6967C64.4225 58.9756 64.6844 59.3811 64.8146 59.7643C64.8606 59.8999 64.8802 59.9968 64.8884 60.0584C63.6866 62.0865 58.9205 69.5222 56.6729 77.069C54.9978 82.6941 50.9587 88.4259 47.9431 90.8809C45.0229 93.258 39.7748 94.7313 33.8625 95.0218C28.0069 95.3095 21.9748 94.4121 17.7298 92.5092C9.52994 88.8334 7.85968 80.7382 7.11135 77.2292C6.5306 74.5057 6.51956 71.5987 6.67502 68.9009C6.75257 67.5551 6.86815 66.2969 6.96907 65.1373C7.06713 64.0105 7.15666 62.9215 7.15667 62.0292ZM26.7768 27.0953C26.7768 25.8314 27.1148 24.7049 27.6737 23.9514C28.1793 23.27 28.9221 22.7987 30.1168 22.7984C31.0942 22.7982 31.7519 22.9187 32.2162 23.1167C32.6327 23.2943 32.9818 23.5699 33.2997 24.0831C34.0329 25.2671 34.5706 27.6455 34.5739 32.384L34.0554 43.6021C33.8615 47.3443 33.6592 51.3994 33.5263 54.7707L26.7768 55.6666V27.0953ZM22.6096 56.2652L16.5905 57.218L15.7705 43.267V32.5083C15.7705 31.031 16.3726 30.1275 17.0848 29.5489C17.8786 28.9039 18.8059 28.6731 19.2433 28.6731C20.0405 28.6731 20.8635 28.797 21.4565 29.2179C21.9131 29.5421 22.6095 30.3087 22.6096 32.5083V56.2652ZM11.6032 35.4278C10.3568 34.8069 9.02271 34.6083 7.85016 34.6868C5.72547 34.8292 3.85203 35.718 2.7259 37.6779C1.70253 39.4592 1.4893 41.8136 1.7215 44.4927C2.04237 48.1949 2.99044 58.6457 2.99044 62.0292C2.99043 62.708 2.91997 63.6116 2.81865 64.7758C2.7202 65.907 2.59705 67.2389 2.51511 68.6606C2.35156 71.4987 2.34047 74.8383 3.03576 78.0987C3.76011 81.4953 5.7216 91.6918 16.0245 96.3108C21.0312 98.5551 27.7601 99.4936 34.0669 99.1838C40.3173 98.8767 46.6346 97.3189 50.5738 94.1122C54.2816 91.0936 58.7687 84.6307 60.6663 78.2589C62.8096 71.0619 67.4516 63.9646 68.6099 61.9533C69.292 60.7689 69.0785 59.3628 68.7606 58.4258C68.4018 57.3688 67.7071 56.2631 66.6632 55.4337C65.5867 54.5784 64.1582 54.0377 62.4749 54.1647C60.8256 54.2893 59.1163 55.0393 57.3791 56.4107C52.9084 59.9401 49.6283 65.5082 48.0201 68.9231C48.0035 68.7664 47.9835 68.6024 47.9684 68.4298C47.7597 66.0435 47.7233 62.3344 48.0159 56.7132C48.199 53.1942 48.5269 50.1809 48.8738 46.6828C49.22 43.1904 49.5785 39.2713 49.8076 34.0302C49.9903 29.8481 49.5613 26.6722 48.3953 24.471C47.7909 23.3302 46.9729 22.4223 45.9322 21.814C44.8964 21.2087 43.7676 20.974 42.6523 20.974C41.0038 20.974 38.9498 21.2062 37.3141 22.7678C37.1699 22.4576 37.0125 22.1652 36.842 21.8899C36.0864 20.6698 35.0817 19.8084 33.8509 19.2835C32.668 18.7791 31.3849 18.6309 30.1168 18.6311C27.5676 18.6315 25.5976 19.7565 24.3275 21.4683C23.5057 22.576 23.0121 23.8776 22.7771 25.1982C21.4248 24.5876 20.0718 24.5068 19.2433 24.5068C17.8299 24.5068 15.9789 25.0791 14.4573 26.3154C12.8543 27.6179 11.6033 29.6733 11.6032 32.5083V35.4278Z" fill="currentColor"/>
    </symbol>

    <symbol id="logo-claude" viewBox="0 0 125 125">
      <path d="M54.375 118.75L56.125 111L58.125 101L59.75 93L61.25 83.125L62.125 79.875L62 79.625L61.375 79.75L53.875 90L42.5 105.375L33.5 114.875L31.375 115.75L27.625 113.875L28 110.375L30.125 107.375L42.5 91.5L50 81.625L54.875 76L54.75 75.25H54.5L21.5 96.75L15.625 97.5L13 95.125L13.375 91.25L14.625 90L24.5 83.125L49.125 69.375L49.5 68.125L49.125 67.5H47.875L43.75 67.25L29.75 66.875L17.625 66.375L5.75 65.75L2.75 65.125L0 61.375L0.25 59.5L2.75 57.875L6.375 58.125L14.25 58.75L26.125 59.5L34.75 60L47.5 61.375H49.5L49.75 60.5L49.125 60L48.625 59.5L36.25 51.25L23 42.5L16 37.375L12.25 34.75L10.375 32.375L9.625 27.125L13 23.375L17.625 23.75L18.75 24L23.375 27.625L33.25 35.25L46.25 44.875L48.125 46.375L49 45.875V45.5L48.125 44.125L41.125 31.375L33.625 18.375L30.25 13L29.375 9.75C29.0417 8.625 28.875 7.375 28.875 6L32.75 0.750006L34.875 0L40.125 0.750006L42.25 2.625L45.5 10L50.625 21.625L58.75 37.375L61.125 42.125L62.375 46.375L62.875 47.75H63.75V47L64.375 38L65.625 27.125L66.875 13.125L67.25 9.125L69.25 4.375L73.125 1.87501L76.125 3.25L78.625 6.875L78.25 9.125L76.875 18.75L73.875 33.875L72 44.125H73.125L74.375 42.75L79.5 36L88.125 25.25L91.875 21L96.375 16.25L99.25 14H104.625L108.5 19.875L106.75 26L101.25 33L96.625 38.875L90 47.75L86 54.875L86.375 55.375H87.25L102.125 52.125L110.25 50.75L119.75 49.125L124.125 51.125L124.625 53.125L122.875 57.375L112.625 59.875L100.625 62.25L82.75 66.5L82.5 66.625L82.75 67L90.75 67.75L94.25 68H102.75L118.5 69.125L122.625 71.875L125 75.125L124.625 77.75L118.25 80.875L109.75 78.875L89.75 74.125L83 72.5H82V73L87.75 78.625L98.125 88L111.25 100.125L111.875 103.125L110.25 105.625L108.5 105.375L97 96.625L92.5 92.75L82.5 84.375H81.875V85.25L84.125 88.625L96.375 107L97 112.625L96.125 114.375L92.875 115.5L89.5 114.875L82.25 104.875L74.875 93.5L68.875 83.375L68.25 83.875L64.625 121.625L63 123.5L59.25 125L56.125 122.625L54.375 118.75Z" fill="currentColor"/>
    </symbol>

    <symbol id="logo-openai" viewBox="0 0 320 320">
      <path fill="currentColor" d="m297.06 130.97c7.26-21.79 4.76-45.66-6.85-65.48-17.46-30.4-52.56-46.04-86.84-38.68-15.25-17.18-37.16-26.95-60.13-26.81-35.04-.08-66.13 22.48-76.91 55.82-22.51 4.61-41.94 18.7-53.31 38.67-17.59 30.32-13.58 68.54 9.92 94.54-7.26 21.79-4.76 45.66 6.85 65.48 17.46 30.4 52.56 46.04 86.84 38.68 15.24 17.18 37.16 26.95 60.13 26.8 35.06.09 66.16-22.49 76.94-55.86 22.51-4.61 41.94-18.7 53.31-38.67 17.57-30.32 13.55-68.51-9.94-94.51zm-120.28 168.11c-14.03.02-27.62-4.89-38.39-13.88.49-.26 1.34-.73 1.89-1.07l63.72-36.8c3.26-1.85 5.26-5.32 5.24-9.07v-89.83l26.93 15.55c.29.14.48.42.52.74v74.39c-.04 33.08-26.83 59.9-59.91 59.97zm-128.84-55.03c-7.03-12.14-9.56-26.37-7.15-40.18.47.28 1.3.79 1.89 1.13l63.72 36.8c3.23 1.89 7.23 1.89 10.47 0l77.79-44.92v31.1c.02.32-.13.63-.38.83l-64.41 37.19c-28.69 16.52-65.33 6.7-81.92-21.95zm-16.77-139.09c7-12.16 18.05-21.46 31.21-26.29 0 .55-.03 1.52-.03 2.2v73.61c-.02 3.74 1.98 7.21 5.23 9.06l77.79 44.91-26.93 15.55c-.27.18-.61.21-.91.08l-64.42-37.22c-28.63-16.58-38.45-53.21-21.95-81.89zm221.26 51.49-77.79-44.92 26.93-15.54c.27-.18.61-.21.91-.08l64.42 37.19c28.68 16.57 38.51 53.26 21.94 81.94-7.01 12.14-18.05 21.44-31.2 26.28v-75.81c.03-3.74-1.96-7.2-5.2-9.06zm26.8-40.34c-.47-.29-1.3-.79-1.89-1.13l-63.72-36.8c-3.23-1.89-7.23-1.89-10.47 0l-77.79 44.92v-31.1c-.02-.32.13-.63.38-.83l64.41-37.16c28.69-16.55 65.37-6.7 81.91 22 6.99 12.12 9.52 26.31 7.15 40.1zm-168.51 55.43-26.94-15.55c-.29-.14-.48-.42-.52-.74v-74.39c.02-33.12 26.89-59.96 60.01-59.94 14.01 0 27.57 4.92 38.34 13.88-.49.26-1.33.73-1.89 1.07l-63.72 36.8c-3.26 1.85-5.26 5.31-5.24 9.06l-.04 89.79zm14.63-31.54 34.65-20.01 34.65 20v40.01l-34.65 20-34.65-20z"/>
    </symbol>

    <style>
      .bg { fill: #fbfbfa; }
      .title { font: 700 29px Arial, Helvetica, sans-serif; fill: #0f172a; letter-spacing: 0; }
      .subtitle { font: 500 16px Arial, Helvetica, sans-serif; fill: #334155; letter-spacing: 0; }
      .label { font: 500 24px "SFMono-Regular", Menlo, Consolas, "Liberation Mono", monospace; fill: #0f172a; letter-spacing: 0; }
      .mono { font: 500 18px "SFMono-Regular", Menlo, Consolas, "Liberation Mono", monospace; fill: #0f172a; letter-spacing: 0; }
      .small { font: 500 16px Arial, Helvetica, sans-serif; fill: #111827; letter-spacing: 0; }
      .tiny { font: 500 14px Arial, Helvetica, sans-serif; fill: #334155; letter-spacing: 0; }
      .logo-text { font: 650 13px Arial, Helvetica, sans-serif; fill: #111827; letter-spacing: 0; }
      .box { stroke: #111827; stroke-width: 2; }
      .box-thin { stroke: #111827; stroke-width: 1.6; }
      .brand-mark { color: #111827; }
      .logo-chip { fill: #ffffff; stroke: #cbd5e1; stroke-width: 1.4; }
      .fill-shell { fill: #f7f7f5; }
      .fill-panel { fill: #ffffff; }
      .fill-agent { fill: #f9fafb; }
      .fill-adapter { fill: #ffffff; }
      .fill-work { fill: #ffffff; }
      .label-bg { fill: #fbfbfa; }
      .icon { color: #0f172a; fill: none; stroke: currentColor; stroke-width: 1.9; stroke-linecap: round; stroke-linejoin: round; }
      .line { stroke: #111827; stroke-width: 2; fill: none; marker-end: url(#arrowBlack); }
      .line-dashed { stroke: #475569; stroke-width: 2; fill: none; stroke-dasharray: 8 8; marker-end: url(#arrowBlack); }
      .line-no-end { stroke: #111827; stroke-width: 2; fill: none; }
    </style>
  </defs>

  <rect class="bg" x="0" y="0" width="1200" height="860"/>

  <text class="title" x="48" y="68">Agent runtime separate from sandbox compute</text>
  <!-- Work source -->
  <rect class="box-thin fill-panel" x="92" y="148" width="300" height="60" rx="6"/>
  <use href="#icon-issue" class="icon" x="120" y="164" width="28" height="28"/>
  <text class="mono" x="258" y="188" text-anchor="middle">Issues / Backlog</text>

  <!-- Trusted runtime -->
  <rect class="box" x="50" y="260" width="400" height="370" rx="8" fill="url(#trustedHatch)"/>
  <text class="label" x="250" y="306" text-anchor="middle">Runtime / Control Plane</text>

  <rect class="box-thin fill-panel" x="78" y="346" width="344" height="50" rx="6"/>
  <use href="#icon-clock" class="icon" x="110" y="357" width="28" height="28"/>
  <text class="mono" x="280" y="379" text-anchor="middle">Task Queue + Scheduler</text>

  <rect class="box-thin fill-panel" x="78" y="423" width="344" height="50" rx="6"/>
  <use href="#icon-shield" class="icon" x="110" y="434" width="28" height="28"/>
  <text class="mono" x="280" y="456" text-anchor="middle">Policy + Approvals</text>

  <rect class="box-thin fill-panel" x="78" y="500" width="344" height="50" rx="6"/>
  <use href="#icon-state" class="icon" x="110" y="511" width="28" height="28"/>
  <text class="mono" x="280" y="533" text-anchor="middle">State + Recovery + Audit</text>

  <rect class="box-thin fill-adapter" x="78" y="577" width="344" height="46" rx="6"/>
  <use href="#icon-plug" class="icon" x="126" y="586" width="28" height="28"/>
  <text class="mono" x="280" y="607" text-anchor="middle">Agent Adapter</text>

  <!-- Sandbox compute -->
  <rect class="box fill-shell" x="720" y="260" width="400" height="400" rx="8"/>
  <text class="label" x="920" y="306" text-anchor="middle">Sandbox Compute</text>

  <text class="mono" x="920" y="358" text-anchor="middle">Agent Harness</text>

  <use href="#logo-opencode" class="brand-mark" x="765" y="380" width="110" height="20"/>

  <use href="#logo-openhands" class="brand-mark" x="930" y="376" width="28" height="20"/>
  <text class="logo-text" x="965" y="393">OpenHands</text>

  <use href="#logo-claude" class="brand-mark" x="780" y="422" width="21" height="21"/>
  <text class="logo-text" x="810" y="438">Claude Code</text>

  <use href="#logo-openai" class="brand-mark" x="940" y="422" width="21" height="21"/>
  <text class="logo-text" x="970" y="438">Codex</text>

  <rect class="box-thin fill-panel" x="760" y="475" width="320" height="42" rx="6"/>
  <use href="#icon-loop" class="icon" x="800" y="482" width="28" height="28"/>
  <text class="mono" x="920" y="504" text-anchor="middle">Agent Loop</text>
  <rect class="box-thin fill-panel" x="760" y="530" width="320" height="42" rx="6"/>
  <use href="#icon-tool" class="icon" x="800" y="537" width="28" height="28"/>
  <text class="mono" x="920" y="559" text-anchor="middle">MCPs / Tools</text>

  <line class="line-no-end" x1="720" y1="594" x2="1120" y2="594"/>

  <rect class="box-thin fill-work" x="760" y="608" width="320" height="48" rx="6"/>
  <use href="#icon-terminal" class="icon" x="786" y="618" width="25" height="25"/>
  <text class="mono" x="920" y="629" text-anchor="middle">Work Environment</text>
  <text class="tiny" x="920" y="647" text-anchor="middle">repo, shell, browser, tests</text>

  <!-- Trusted external access and output -->
  <rect class="box" x="50" y="720" width="400" height="72" rx="8" fill="url(#trustedHatch)"/>
  <use href="#icon-globe" class="icon" x="116" y="741" width="30" height="30"/>
  <text class="label" x="270" y="767" text-anchor="middle">Data / APIs / Web</text>

  <rect class="box" x="720" y="720" width="400" height="72" rx="8" fill="url(#evidenceDots)"/>
  <use href="#icon-pr" class="icon" x="785" y="741" width="30" height="30"/>
  <text class="label" x="938" y="767" text-anchor="middle">PR + Run Evidence</text>

  <!-- Flows -->
  <path class="line" d="M242 208 L242 248"/>
  <rect class="label-bg" x="278" y="224" width="108" height="26"/>
  <text class="small" x="288" y="244">assign work</text>

  <path class="line" d="M450 376 L708 376"/>
  <rect class="label-bg" x="505" y="342" width="202" height="26"/>
  <text class="small" x="515" y="362">start agent in sandbox</text>

  <path class="line-dashed" d="M720 455 L462 455"/>
  <rect class="label-bg" x="500" y="421" width="210" height="26"/>
  <text class="small" x="510" y="441">permission escalation</text>

  <path class="line-dashed" d="M720 638 L462 525"/>
  <rect class="label-bg" x="520" y="532" width="206" height="26"/>
  <text class="small" x="530" y="552">events, logs, checkpoints</text>

  <path class="line" d="M250 630 L250 708"/>
  <rect class="label-bg" x="286" y="664" width="264" height="26"/>
  <text class="small" x="296" y="684">trusted calls use scoped secrets</text>

  <path class="line" d="M422 600 C520 650 620 705 708 756"/>
  <rect class="label-bg" x="550" y="676" width="182" height="26"/>
  <text class="small" x="560" y="696">publish PR + evidence</text>

</svg>
